<svg data-name="Layer 1" xmlns="http://www.w3.org/2000/svg" viewBox="0 0 612.61 268.17"><title>logo-base</title><path d="M275.22 209.12a92.45 92.45 0 1 0-51.9 16.76 93.5 93.5 0 0 0 23.19-3.3l-12.42-24a63 63 0 0 1-56.88-17.41 65.07 65.07 0 0 1-19.63-45.65c-.52-35.6 28.55-66.1 63.47-66.61s65.11 29.11 65.59 64.66a65 65 0 0 1-18.34 46.2 66.81 66.81 0 0 1-5.58 5.16l-30-58a12.732 12.732 0 0 0-22.58 11.77l63.57 123.12c3.24 6.21 10.48 5.35 16.69 2.11l.74-.48c6.21-3.24 8.39-7.18 5.15-13.39zM109.5 45.89H6.04a6 6 0 0 0-6 6v165.59a6 6 0 0 0 6 6h16.25a6.2 6.2 0 0 0 6-6v-71.34h67.2a6.2 6.2 0 0 0 6-6v-13.8a6.2 6.2 0 0 0-6-6H28.33V71.97h81.17a6 6 0 0 0 6-6v-14a6 6 0 0 0-6-6.08z" fill="#213366"/><path d="M425.37 141.46c-10.49-9.32-25.16-16-38.13-21.2-22-9-31-17.79-31-30.32 0-16.79 17.64-21.22 27-21.22 13.88 0 23 5.82 32.57 12l.49.31a7 7 0 0 0 5.43 1.12 8.28 8.28 0 0 0 5.09-4l6.25-9.5a7.38 7.38 0 0 0 1.23-5.77 7.27 7.27 0 0 0-3.06-4.5c-5-3.52-23.26-15-47-15-22.92 0-36.16 8.82-43.22 16.22a45.93 45.93 0 0 0-12.83 31.34c0 13.82 4.44 25 13.56 34.26s22.34 15.56 32.75 19.95c26.6 11 37 20.43 37 33.57 0 12.73-11.34 22-27 22-18.76 0-27.3-7.09-39.12-16.9l-.07-.06a6.41 6.41 0 0 0-5.18-1.41 7.79 7.79 0 0 0-5.23 3.72l-6.5 10.25c-3.33 5.16-.54 7.64 1.7 9.64 3.58 3.36 23 20.1 54.65 20.1 15.83 0 30.36-5 40.92-14.19s16.14-21.3 16.14-34.4c0-14.4-5.38-26.18-16.44-36.01zm185.56 51.34l-11.5-11.23-.08-.07c-1.71-1.42-4.61-2.12-7.61.22-10.94 8.43-23.63 16.24-42.23 16.24a60.31 60.31 0 0 1-44-18.86 65.32 65.32 0 0 1-.12-89.38 59.81 59.81 0 0 1 43.86-19c14.75 0 30.59 6.13 42.39 16.41a5.83 5.83 0 0 0 4.46 2 5 5 0 0 0 3.64-2.12l10.94-11.19a6 6 0 0 0 1.85-4.47 6.15 6.15 0 0 0-2.16-4.42c-18.79-16.27-37.73-23.54-61.36-23.54a91.32 91.32 0 1 0 0 182.63c23.75 0 45.07-8.51 61.68-24.63a6.67 6.67 0 0 0 1.95-4.82 5.12 5.12 0 0 0-1.71-3.77z" fill="#213366"/><path d="M198.93 0h-75.47c-5.6 0-8.68 4.22-8.68 11.87s3.08 11.87 8.68 11.87h75.47c5.6 0 8.69-4.22 8.69-11.87S204.54 0 198.93 0zm119.05 244.42h-75.47c-5.6 0-8.68 4.22-8.68 11.87s3.08 11.87 8.68 11.87h75.47c5.6 0 8.69-4.22 8.69-11.87s-3.09-11.87-8.69-11.87z" fill="#39c4f3"/></svg>